<svg width="26" height="26" viewBox="0 0 26 26" fill="none" xmlns="http://www.w3.org/2000/svg">
<g id="ic_location">
<circle id="Ellipse 197" cx="13" cy="13" r="12.5" fill="#756555" stroke="#FAFAFA"/>
<g id="Group 269">
<path id="Vector" d="M17.8335 9.99997H18.5668C19.3448 9.99997 20.0909 10.2985 20.641 10.8298C21.1911 11.3612 21.5002 12.0819 21.5002 12.8333C21.5002 13.5847 21.1911 14.3054 20.641 14.8368C20.0909 15.3681 19.3448 15.6666 18.5668 15.6666H17.8335" stroke="#FAFAFA" stroke-width="1.33333" stroke-linecap="round" stroke-linejoin="round"/>
<path id="Vector_2" d="M6.5 9H17.8333V15.4615C17.8333 16.2232 17.5348 16.9536 17.0035 17.4922C16.4721 18.0308 15.7514 18.3333 15 18.3333H9.33333C8.58189 18.3333 7.86122 18.0308 7.32986 17.4922C6.79851 16.9536 6.5 16.2232 6.5 15.4615V9Z" fill="#FAFAFA" stroke="#FAFAFA" stroke-width="0.666667" stroke-linecap="round"/>
</g>
</g>
</svg>
