<svg width="150" height="43" viewBox="0 0 150 43" fill="none" xmlns="http://www.w3.org/2000/svg">
<rect width="150" height="43" rx="21.5" fill="#F1F1F1"/>
<mask id="path-2-outside-1_340_7654" maskUnits="userSpaceOnUse" x="44.5" y="15" width="10" height="15" fill="black">
<rect fill="white" x="44.5" y="15" width="10" height="15"/>
<path fill-rule="evenodd" clip-rule="evenodd" d="M49.4765 27.5C49.4765 27.5 53.4529 22.7208 53.4529 19.9765C53.4529 17.7803 51.6726 16 49.4765 16C47.2803 16 45.5 17.7803 45.5 19.9765C45.5 22.7202 49.4765 27.5 49.4765 27.5ZM49.4875 21.3498C50.2772 21.3498 50.9174 20.7096 50.9174 19.9199C50.9174 19.1303 50.2772 18.4901 49.4875 18.4901C48.6978 18.4901 48.0577 19.1303 48.0577 19.9199C48.0577 20.7096 48.6978 21.3498 49.4875 21.3498Z"/>
</mask>
<path d="M49.4765 27.5L48.7077 28.1395L49.4764 29.0635L50.2452 28.1396L49.4765 27.5ZM52.4529 19.9765C52.4529 20.4521 52.2718 21.1117 51.9187 21.9017C51.5743 22.6719 51.1065 23.4794 50.6249 24.2245C50.1452 24.9664 49.6638 25.6284 49.3014 26.1056C49.1206 26.3437 48.9704 26.5345 48.8662 26.6649C48.8141 26.7301 48.7735 26.7801 48.7465 26.8132C48.733 26.8298 48.7228 26.8422 48.7163 26.8501C48.713 26.8541 48.7106 26.8569 48.7092 26.8586C48.7085 26.8595 48.708 26.8601 48.7078 26.8604C48.7076 26.8605 48.7076 26.8606 48.7076 26.8606C48.7076 26.8606 48.7076 26.8606 48.7076 26.8606C48.7077 26.8605 48.7077 26.8604 49.4765 27.5C50.2452 28.1396 50.2453 28.1395 50.2454 28.1393C50.2455 28.1392 50.2456 28.1391 50.2457 28.1389C50.2459 28.1387 50.2462 28.1383 50.2466 28.1379C50.2473 28.137 50.2483 28.1358 50.2495 28.1344C50.2519 28.1315 50.2552 28.1275 50.2595 28.1223C50.268 28.112 50.2801 28.0972 50.2957 28.0781C50.3269 28.0399 50.3718 27.9845 50.4285 27.9136C50.5417 27.7719 50.7022 27.568 50.8942 27.3151C51.2774 26.8105 51.79 26.1061 52.3045 25.3102C52.817 24.5174 53.3433 23.6156 53.7445 22.7179C54.137 21.8399 54.4529 20.873 54.4529 19.9765H52.4529ZM49.4765 17C51.1203 17 52.4529 18.3326 52.4529 19.9765H54.4529C54.4529 17.228 52.2249 15 49.4765 15V17ZM46.5 19.9765C46.5 18.3326 47.8326 17 49.4765 17V15C46.728 15 44.5 17.228 44.5 19.9765H46.5ZM49.4765 27.5C50.2452 26.8605 50.2453 26.8605 50.2453 26.8606C50.2453 26.8606 50.2454 26.8607 50.2454 26.8607C50.2454 26.8607 50.2453 26.8606 50.2452 26.8604C50.245 26.8601 50.2445 26.8596 50.2438 26.8587C50.2423 26.857 50.24 26.8541 50.2367 26.8501C50.2302 26.8422 50.22 26.8299 50.2065 26.8133C50.1794 26.7801 50.1389 26.7301 50.0868 26.665C49.9826 26.5345 49.8324 26.3437 49.6516 26.1056C49.2892 25.6283 48.8077 24.9663 48.3281 24.2243C47.8464 23.4792 47.3786 22.6716 47.0343 21.9014C46.6811 21.1115 46.5 20.4519 46.5 19.9765H44.5C44.5 20.8728 44.8159 21.8397 45.2084 22.7176C45.6097 23.6153 46.1359 24.5171 46.6484 25.31C47.1629 26.1059 47.6755 26.8103 48.0587 27.315C48.2507 27.5679 48.4112 27.7718 48.5244 27.9135C48.581 27.9844 48.6259 28.0398 48.6571 28.078C48.6727 28.0971 48.6849 28.1119 48.6934 28.1223C48.6977 28.1274 48.701 28.1315 48.7034 28.1343C48.7046 28.1358 48.7055 28.1369 48.7063 28.1378C48.7066 28.1382 48.7069 28.1386 48.7072 28.1389C48.7073 28.139 48.7074 28.1392 48.7075 28.1393C48.7076 28.1394 48.7077 28.1395 49.4765 27.5ZM49.9174 19.9199C49.9174 20.1573 49.7249 20.3498 49.4875 20.3498V22.3498C50.8295 22.3498 51.9174 21.2619 51.9174 19.9199H49.9174ZM49.4875 19.4901C49.7249 19.4901 49.9174 19.6825 49.9174 19.9199H51.9174C51.9174 18.578 50.8295 17.4901 49.4875 17.4901V19.4901ZM49.0577 19.9199C49.0577 19.6825 49.2501 19.4901 49.4875 19.4901V17.4901C48.1456 17.4901 47.0577 18.578 47.0577 19.9199H49.0577ZM49.4875 20.3498C49.2501 20.3498 49.0577 20.1573 49.0577 19.9199H47.0577C47.0577 21.2619 48.1456 22.3498 49.4875 22.3498V20.3498Z" fill="#666666" mask="url(#path-2-outside-1_340_7654)"/>
<path d="M77.2051 14.8574V21.1191H75.6738V14.8574H77.2051ZM73.4727 15.3633C73.459 18.6719 71.4629 20.5586 67.6348 21.3652L67.1016 20.1348C70.1709 19.5332 71.6064 18.248 71.791 16.5938H67.7578V15.3633H73.4727ZM77.2051 21.625V24.8516H70.5605V25.9043H77.5742V27.0938H69.0293V23.7441H75.6738V22.8145H69.002V21.625H77.2051ZM83.1031 17.3867C83.1031 18.7129 84.1012 20.0117 86.0426 20.5312L85.359 21.6934C83.9234 21.3174 82.9117 20.4971 82.3648 19.4375C81.8111 20.5996 80.7721 21.502 79.316 21.9258L78.5914 20.7227C80.5465 20.2031 81.5855 18.8359 81.5855 17.3867V17.3457H79.0016V16.1426H81.5855V14.8027H83.1168V16.1426H85.6871V17.3457H83.1031V17.3867ZM88.4078 14.8574V17.7285H90.1305V18.9863H88.4078V21.9395H86.8902V14.8574H88.4078ZM88.5855 22.5137V23.7305H85.318C85.6051 24.7559 86.9928 25.7129 89.1051 26.0137L88.5582 27.1758C86.6236 26.9023 85.1607 26.0752 84.443 24.9473C83.732 26.0684 82.2828 26.875 80.3687 27.1484L79.8082 26C81.9273 25.7061 83.3014 24.7832 83.5953 23.7305H80.3141V22.5137H88.5855ZM100.732 14.8574V27.2168H99.2004V14.8574H100.732ZM97.0402 16.1699C97.0402 19.8477 95.6184 22.9785 91.2844 25.0293L90.4914 23.8125C93.7248 22.2744 95.2287 20.1826 95.4953 17.373H91.1203V16.1699H97.0402Z" fill="#666666"/>
</svg>
