<svg width="150" height="43" viewBox="0 0 150 43" fill="none" xmlns="http://www.w3.org/2000/svg">
<path d="M0 21.5C0 9.62588 9.62588 0 21.5 0H128.5C140.374 0 150 9.62588 150 21.5C150 33.3741 140.374 43 128.5 43H21.5C9.62588 43 0 33.3741 0 21.5Z" fill="url(#paint0_linear_340_7617)"/>
<mask id="path-2-outside-1_340_7617" maskUnits="userSpaceOnUse" x="43.5" y="14" width="12" height="16" fill="black">
<rect fill="white" x="43.5" y="14" width="12" height="16"/>
<path fill-rule="evenodd" clip-rule="evenodd" d="M49.4765 27.5C49.4765 27.5 53.4529 22.7208 53.4529 19.9765C53.4529 17.7803 51.6726 16 49.4765 16C47.2803 16 45.5 17.7803 45.5 19.9765C45.5 22.7202 49.4765 27.5 49.4765 27.5ZM49.4875 21.3495C50.2772 21.3495 50.9173 20.7093 50.9173 19.9196C50.9173 19.13 50.2772 18.4898 49.4875 18.4898C48.6978 18.4898 48.0577 19.13 48.0577 19.9196C48.0577 20.7093 48.6978 21.3495 49.4875 21.3495Z"/>
</mask>
<path d="M49.4765 27.5L48.665 28.1751L49.4764 29.1504L50.2879 28.1751L49.4765 27.5ZM52.3974 19.9765C52.3974 20.4404 52.22 21.0915 51.8679 21.879C51.5252 22.6457 51.059 23.4506 50.5782 24.1943C50.0996 24.9348 49.6189 25.5955 49.2571 26.072C49.0766 26.3097 48.9267 26.5002 48.8228 26.6303C48.7708 26.6953 48.7304 26.7451 48.7034 26.7781C48.69 26.7946 48.6799 26.8069 48.6734 26.8148C48.6702 26.8187 48.6678 26.8215 48.6664 26.8232C48.6657 26.8241 48.6652 26.8246 48.665 26.8249C48.6649 26.825 48.6648 26.8251 48.6648 26.8251C48.6648 26.8251 48.6649 26.825 48.6649 26.825C48.665 26.825 48.665 26.8249 49.4765 27.5C50.2879 28.1751 50.288 28.175 50.2881 28.1748C50.2882 28.1748 50.2883 28.1746 50.2884 28.1745C50.2887 28.1742 50.289 28.1738 50.2893 28.1734C50.2901 28.1725 50.2911 28.1713 50.2923 28.1698C50.2947 28.1669 50.298 28.1628 50.3023 28.1576C50.3109 28.1473 50.3231 28.1324 50.3388 28.1132C50.3701 28.0749 50.4151 28.0193 50.4719 27.9483C50.5854 27.8063 50.7461 27.602 50.9384 27.3487C51.3222 26.8433 51.8357 26.1378 52.3512 25.3404C52.8645 24.5463 53.3924 23.6418 53.7953 22.7405C54.1888 21.8601 54.5085 20.8847 54.5085 19.9765H52.3974ZM49.4765 17.0556C51.0896 17.0556 52.3974 18.3633 52.3974 19.9765H54.5085C54.5085 17.1974 52.2556 14.9444 49.4765 14.9444V17.0556ZM46.5556 19.9765C46.5556 18.3633 47.8633 17.0556 49.4765 17.0556V14.9444C46.6974 14.9444 44.4444 17.1974 44.4444 19.9765H46.5556ZM49.4765 27.5C50.2879 26.8249 50.288 26.825 50.2881 26.8251C50.2881 26.8251 50.2881 26.8252 50.2881 26.8252C50.2881 26.8252 50.2881 26.8251 50.2879 26.825C50.2877 26.8247 50.2872 26.8241 50.2865 26.8233C50.2851 26.8216 50.2828 26.8187 50.2796 26.8148C50.2731 26.8069 50.263 26.7947 50.2495 26.7781C50.2226 26.7451 50.1821 26.6953 50.1302 26.6303C50.0262 26.5002 49.8763 26.3097 49.6958 26.072C49.334 25.5954 48.8534 24.9346 48.3747 24.1941C47.8939 23.4503 47.4277 22.6454 47.085 21.8787C46.7329 21.0912 46.5556 20.4402 46.5556 19.9765H44.4444C44.4444 20.8845 44.7641 21.8599 45.1577 22.7403C45.5605 23.6415 46.0884 24.546 46.6017 25.3401C47.1172 26.1375 47.6307 26.8432 48.0145 27.3486C48.2068 27.6019 48.3675 27.8062 48.481 27.9482C48.5378 28.0193 48.5828 28.0748 48.6141 28.1131C48.6297 28.1323 48.642 28.1472 48.6505 28.1576C48.6548 28.1628 48.6582 28.1669 48.6606 28.1698C48.6618 28.1712 48.6628 28.1724 48.6635 28.1733C48.6639 28.1737 48.6642 28.1741 48.6644 28.1744C48.6646 28.1746 48.6647 28.1747 48.6648 28.1748C48.6649 28.1749 48.665 28.1751 49.4765 27.5ZM49.8618 19.9196C49.8618 20.1263 49.6942 20.2939 49.4875 20.2939V22.405C50.8601 22.405 51.9729 21.2923 51.9729 19.9196H49.8618ZM49.4875 19.5453C49.6942 19.5453 49.8618 19.7129 49.8618 19.9196H51.9729C51.9729 18.547 50.8601 17.4342 49.4875 17.4342V19.5453ZM49.1132 19.9196C49.1132 19.7129 49.2808 19.5453 49.4875 19.5453V17.4342C48.1149 17.4342 47.0021 18.547 47.0021 19.9196H49.1132ZM49.4875 20.2939C49.2808 20.2939 49.1132 20.1263 49.1132 19.9196H47.0021C47.0021 21.2923 48.1149 22.405 49.4875 22.405V20.2939Z" fill="#FAFAFA" mask="url(#path-2-outside-1_340_7617)"/>
<path d="M77.116 22.1464H75.8156V15.9102H77.116V22.1464ZM67.1478 21.3343C68.6529 21.0216 69.8131 20.5382 70.6285 19.884C71.4438 19.2265 71.8999 18.4385 71.9965 17.52H67.7859V16.4613H73.4323C73.4291 18.0373 72.9312 19.3168 71.9385 20.2997C70.9491 21.2795 69.5085 21.9788 67.6167 22.3978L67.1478 21.3343ZM69.0573 22.6878H77.116V25.7673H70.3867V27.0193H77.5173V28.0442H69.096V24.8052H75.8108V23.7175H69.0573V22.6878ZM82.9968 18.4434C82.9968 18.9075 83.1161 19.3538 83.3546 19.7825C83.5931 20.2111 83.9363 20.5914 84.3843 20.9233C84.8323 21.2521 85.3624 21.5018 85.9747 21.6727L85.385 22.6637C84.6856 22.4671 84.0765 22.1641 83.5576 21.7548C83.042 21.3455 82.6456 20.8621 82.3684 20.3046C82.0945 20.9137 81.6932 21.4438 81.1647 21.895C80.6393 22.3462 80.0173 22.683 79.2986 22.9054L78.6702 21.8805C79.2858 21.7033 79.8224 21.4422 80.28 21.0974C80.7376 20.7493 81.0889 20.3465 81.3339 19.8888C81.582 19.4312 81.7061 18.9494 81.7061 18.4434V18.3032H79.0424V17.259H81.7061V15.857H83.0162V17.259H85.6557V18.3032H82.9968V18.4434ZM79.8884 27.116C80.5652 27.0161 81.1808 26.8453 81.7351 26.6036C82.2927 26.3619 82.7455 26.0718 83.0935 25.7334C83.4448 25.3918 83.6591 25.0276 83.7365 24.6409H80.3815V23.5967H88.5224V24.6409H85.1626C85.2399 25.018 85.4543 25.3789 85.8055 25.7238C86.1601 26.0654 86.6161 26.3587 87.1736 26.6036C87.7344 26.8485 88.35 27.0209 89.0203 27.1209L88.5417 28.1264C87.923 28.0297 87.3461 27.8734 86.8111 27.6575C86.2793 27.4415 85.8104 27.1773 85.4043 26.8646C84.9982 26.5488 84.6792 26.1975 84.4471 25.8108C84.2151 26.1943 83.896 26.5424 83.4899 26.855C83.0871 27.1644 82.6198 27.4254 82.088 27.6381C81.5562 27.8508 80.9826 28.0055 80.367 28.1022L79.8884 27.116ZM87.0286 15.9102H88.329V18.8446H90.1032V19.9227H88.329V22.9876H87.0286V15.9102ZM100.635 28.1602H99.3293V15.9102H100.635V28.1602ZM90.5697 24.8778C92.1746 24.114 93.3929 23.1842 94.2244 22.0884C95.0591 20.9894 95.5409 19.7148 95.6698 18.2645H91.1643V17.23H96.9944C96.9879 19.1282 96.5319 20.8122 95.6263 22.2818C94.7239 23.7514 93.2672 24.9664 91.2561 25.9268L90.5697 24.8778Z" fill="#FAFAFA"/>
<defs>
<linearGradient id="paint0_linear_340_7617" x1="0" y1="21.5" x2="150" y2="21.5" gradientUnits="userSpaceOnUse">
<stop stop-color="#3F2D1E"/>
<stop offset="1" stop-color="#6A331B"/>
</linearGradient>
</defs>
</svg>
