<svg width="35" height="46" viewBox="0 0 35 46" fill="none" xmlns="http://www.w3.org/2000/svg">
<g id="ic_location2">
<ellipse id="Ellipse 39" cx="17.5" cy="39.125" rx="17.5" ry="6.25" fill="black" fill-opacity="0.32"/>
<g id="Subtract">
<mask id="path-2-outside-1_1297_6632" maskUnits="userSpaceOnUse" x="3.38867" y="0" width="28" height="40" fill="black">
<rect fill="white" x="3.38867" width="28" height="40"/>
<path fill-rule="evenodd" clip-rule="evenodd" d="M17.3554 38.5C17.3554 38.5 30.3221 22.9156 30.3221 13.9667C30.3221 6.80539 24.5167 1 17.3554 1C10.1941 1 4.38867 6.80539 4.38867 13.9667C4.38867 22.9136 17.3554 38.5 17.3554 38.5ZM17.3915 18.4448C19.9665 18.4448 22.054 16.3573 22.054 13.7823C22.054 11.2073 19.9665 9.11979 17.3915 9.11979C14.8164 9.11979 12.7289 11.2073 12.7289 13.7823C12.7289 16.3573 14.8164 18.4448 17.3915 18.4448Z"/>
</mask>
<path fill-rule="evenodd" clip-rule="evenodd" d="M17.3554 38.5C17.3554 38.5 30.3221 22.9156 30.3221 13.9667C30.3221 6.80539 24.5167 1 17.3554 1C10.1941 1 4.38867 6.80539 4.38867 13.9667C4.38867 22.9136 17.3554 38.5 17.3554 38.5ZM17.3915 18.4448C19.9665 18.4448 22.054 16.3573 22.054 13.7823C22.054 11.2073 19.9665 9.11979 17.3915 9.11979C14.8164 9.11979 12.7289 11.2073 12.7289 13.7823C12.7289 16.3573 14.8164 18.4448 17.3915 18.4448Z" fill="#825A32"/>
<path d="M17.3554 38.5L16.971 38.8198L17.3554 39.2818L17.7397 38.8198L17.3554 38.5ZM29.8221 13.9667C29.8221 16.0987 29.0454 18.6738 27.8396 21.3713C26.6382 24.0589 25.0319 26.8223 23.4188 29.3177C21.8067 31.8116 20.1936 34.0287 18.9832 35.6227C18.3782 36.4195 17.8743 37.0599 17.522 37.5007C17.3458 37.7211 17.2076 37.8915 17.1137 38.0066C17.0667 38.0641 17.0308 38.1078 17.0068 38.137C16.9948 38.1515 16.9857 38.1625 16.9797 38.1697C16.9767 38.1733 16.9745 38.176 16.973 38.1778C16.9723 38.1786 16.9718 38.1793 16.9714 38.1797C16.9713 38.1799 16.9712 38.18 16.9711 38.1801C16.971 38.1802 16.971 38.1802 17.3554 38.5C17.7397 38.8198 17.7398 38.8197 17.74 38.8195C17.7401 38.8194 17.7403 38.8191 17.7405 38.8189C17.741 38.8183 17.7416 38.8175 17.7425 38.8165C17.7441 38.8145 17.7466 38.8115 17.7498 38.8076C17.7563 38.7998 17.7659 38.7882 17.7784 38.7731C17.8034 38.7427 17.8403 38.6978 17.8883 38.639C17.9843 38.5214 18.1247 38.3483 18.3031 38.125C18.6599 37.6786 19.169 37.0316 19.7796 36.2275C21.0005 34.6198 22.6291 32.3815 24.2586 29.8606C25.8872 27.3413 27.5226 24.5307 28.7525 21.7794C29.978 19.0379 30.8221 16.3091 30.8221 13.9667H29.8221ZM17.3554 1.5C24.2405 1.5 29.8221 7.08153 29.8221 13.9667H30.8221C30.8221 6.52925 24.7928 0.5 17.3554 0.5V1.5ZM4.88867 13.9667C4.88867 7.08153 10.4702 1.5 17.3554 1.5V0.5C9.91792 0.5 3.88867 6.52925 3.88867 13.9667H4.88867ZM17.3554 38.5C17.7398 38.1802 17.7397 38.1802 17.7397 38.1801C17.7396 38.18 17.7395 38.1799 17.7393 38.1797C17.739 38.1793 17.7385 38.1787 17.7377 38.1778C17.7363 38.176 17.7341 38.1734 17.7311 38.1697C17.7251 38.1625 17.716 38.1516 17.704 38.137C17.68 38.1078 17.6441 38.0641 17.5971 38.0066C17.5031 37.8915 17.3649 37.721 17.1888 37.5006C16.8365 37.0598 16.3326 36.4193 15.7275 35.6225C14.5171 34.0283 12.9041 31.811 11.2919 29.317C9.67881 26.8214 8.07258 24.058 6.87119 21.3704C5.66539 18.6731 4.88867 16.0982 4.88867 13.9667H3.88867C3.88867 16.3086 4.73279 19.0372 5.95825 21.7785C7.18812 24.5298 8.82356 27.3404 10.4521 29.8599C12.0817 32.3808 13.7103 34.6193 14.9311 36.2272C15.5417 37.0314 16.0508 37.6784 16.4076 38.1249C16.586 38.3482 16.7264 38.5213 16.8224 38.6389C16.8704 38.6977 16.9073 38.7427 16.9324 38.773C16.9449 38.7882 16.9544 38.7998 16.9609 38.8076C16.9641 38.8115 16.9666 38.8145 16.9683 38.8165C16.9691 38.8175 16.9698 38.8183 16.9702 38.8188C16.9705 38.8191 16.9707 38.8193 16.9708 38.8195C16.9709 38.8196 16.971 38.8198 17.3554 38.5ZM21.554 13.7823C21.554 16.0812 19.6904 17.9448 17.3915 17.9448V18.9448C20.2426 18.9448 22.554 16.6335 22.554 13.7823H21.554ZM17.3915 9.61979C19.6904 9.61979 21.554 11.4834 21.554 13.7823H22.554C22.554 10.9311 20.2426 8.61979 17.3915 8.61979V9.61979ZM13.2289 13.7823C13.2289 11.4834 15.0926 9.61979 17.3915 9.61979V8.61979C14.5403 8.61979 12.2289 10.9311 12.2289 13.7823H13.2289ZM17.3915 17.9448C15.0926 17.9448 13.2289 16.0812 13.2289 13.7823H12.2289C12.2289 16.6335 14.5403 18.9448 17.3915 18.9448V17.9448Z" fill="white" mask="url(#path-2-outside-1_1297_6632)"/>
</g>
<circle id="Ellipse 38" cx="17.392" cy="13.7826" r="4.66251" fill="#FAFAFA"/>
</g>
</svg>
