<svg width="25" height="25" viewBox="0 0 25 25" fill="none" xmlns="http://www.w3.org/2000/svg">
<g id="logo" opacity="0.94">
<g id="ic_logo">
<path id="Vector" d="M17.429 9.58838H18.2112C19.041 9.58838 19.8369 9.9068 20.4237 10.4736C21.0105 11.0404 21.3401 11.8091 21.3401 12.6106C21.3401 13.4122 21.0105 14.1809 20.4237 14.7477C19.8369 15.3145 19.041 15.6329 18.2112 15.6329H17.429" stroke="white" stroke-width="1.42224" stroke-linecap="round" stroke-linejoin="round"/>
<path id="Vector_2" d="M5.34033 8.52197H17.4294V15.4144C17.4294 16.2268 17.111 17.006 16.5442 17.5805C15.9774 18.1549 15.2087 18.4777 14.4071 18.4777H8.3626C7.56105 18.4777 6.79232 18.1549 6.22553 17.5805C5.65875 17.006 5.34033 16.2268 5.34033 15.4144V8.52197Z" fill="white" stroke="white" stroke-width="0.711122" stroke-linecap="round"/>
</g>
</g>
</svg>
