<svg width="20" height="19" viewBox="0 0 20 19" fill="none" xmlns="http://www.w3.org/2000/svg">
<g id="ic_map">
<g id="Subtract">
<mask id="path-1-outside-1_1484_6747" maskUnits="userSpaceOnUse" x="4.5" y="2" width="12" height="16" fill="black">
<rect fill="white" x="4.5" y="2" width="12" height="16"/>
<path fill-rule="evenodd" clip-rule="evenodd" d="M10.4765 15.5C10.4765 15.5 14.4529 10.7208 14.4529 7.97646C14.4529 5.78032 12.6726 4 10.4765 4C8.28032 4 6.5 5.78032 6.5 7.97646C6.5 10.7202 10.4765 15.5 10.4765 15.5ZM10.4875 9.34947C11.2772 9.34947 11.9173 8.70931 11.9173 7.91963C11.9173 7.12995 11.2772 6.48979 10.4875 6.48979C9.69782 6.48979 9.05766 7.12995 9.05766 7.91963C9.05766 8.70931 9.69782 9.34947 10.4875 9.34947Z"/>
</mask>
<path d="M10.4765 15.5L9.66499 16.1751L10.4764 17.1504L11.2879 16.1751L10.4765 15.5ZM13.3974 7.97646C13.3974 8.44042 13.22 9.0915 12.8679 9.87901C12.5252 10.6457 12.059 11.4506 11.5782 12.1943C11.0996 12.9348 10.6189 13.5955 10.2571 14.072C10.0766 14.3097 9.92673 14.5002 9.82277 14.6303C9.77081 14.6953 9.73039 14.7451 9.70345 14.7781C9.68998 14.7946 9.67988 14.8069 9.67339 14.8148C9.67015 14.8187 9.66781 14.8215 9.66641 14.8232C9.66571 14.8241 9.66524 14.8246 9.66501 14.8249C9.6649 14.825 9.66484 14.8251 9.66484 14.8251C9.66485 14.8251 9.66489 14.825 9.6649 14.825C9.66496 14.825 9.66504 14.8249 10.4765 15.5C11.2879 16.1751 11.288 16.175 11.2881 16.1748C11.2882 16.1748 11.2883 16.1746 11.2884 16.1745C11.2887 16.1742 11.289 16.1738 11.2893 16.1734C11.2901 16.1725 11.2911 16.1713 11.2923 16.1698C11.2947 16.1669 11.298 16.1628 11.3023 16.1576C11.3109 16.1473 11.3231 16.1324 11.3388 16.1132C11.3701 16.0749 11.4151 16.0193 11.4719 15.9483C11.5854 15.8063 11.7461 15.602 11.9384 15.3487C12.3222 14.8433 12.8357 14.1378 13.3512 13.3404C13.8645 12.5463 14.3924 11.6418 14.7953 10.7405C15.1888 9.8601 15.5085 8.88465 15.5085 7.97646H13.3974ZM10.4765 5.05556C12.0896 5.05556 13.3974 6.36329 13.3974 7.97646H15.5085C15.5085 5.19735 13.2556 2.94444 10.4765 2.94444V5.05556ZM7.55556 7.97646C7.55556 6.36329 8.86329 5.05556 10.4765 5.05556V2.94444C7.69735 2.94444 5.44444 5.19735 5.44444 7.97646H7.55556ZM10.4765 15.5C11.2879 14.8249 11.288 14.825 11.2881 14.8251C11.2881 14.8251 11.2881 14.8252 11.2881 14.8252C11.2881 14.8252 11.2881 14.8251 11.2879 14.825C11.2877 14.8247 11.2872 14.8241 11.2865 14.8233C11.2851 14.8216 11.2828 14.8187 11.2796 14.8148C11.2731 14.8069 11.263 14.7947 11.2495 14.7781C11.2226 14.7451 11.1821 14.6953 11.1302 14.6303C11.0262 14.5002 10.8763 14.3097 10.6958 14.072C10.334 13.5954 9.85337 12.9346 9.37471 12.1941C8.89394 11.4503 8.42771 10.6454 8.08498 9.87873C7.73294 9.09122 7.55556 8.44024 7.55556 7.97646H5.44444C5.44444 8.88453 5.76412 9.85991 6.15767 10.7403C6.56052 11.6415 7.0884 12.546 7.60175 13.3401C8.1172 14.1375 8.63068 14.8432 9.01445 15.3486C9.20675 15.6019 9.36751 15.8062 9.481 15.9482C9.53777 16.0193 9.58279 16.0748 9.61409 16.1131C9.62975 16.1323 9.64198 16.1472 9.65054 16.1576C9.65482 16.1628 9.65819 16.1669 9.66061 16.1698C9.66182 16.1712 9.66279 16.1724 9.66352 16.1733C9.66389 16.1737 9.66419 16.1741 9.66444 16.1744C9.66456 16.1746 9.6647 16.1747 9.66476 16.1748C9.66489 16.1749 9.66499 16.1751 10.4765 15.5ZM10.8618 7.91963C10.8618 8.12634 10.6942 8.29391 10.4875 8.29391V10.405C11.8601 10.405 12.9729 9.29227 12.9729 7.91963H10.8618ZM10.4875 7.54535C10.6942 7.54535 10.8618 7.71292 10.8618 7.91963H12.9729C12.9729 6.54698 11.8601 5.43424 10.4875 5.43424V7.54535ZM10.1132 7.91963C10.1132 7.71292 10.2808 7.54535 10.4875 7.54535V5.43424C9.11485 5.43424 8.00211 6.54698 8.00211 7.91963H10.1132ZM10.4875 8.29391C10.2808 8.29391 10.1132 8.12634 10.1132 7.91963H8.00211C8.00211 9.29227 9.11485 10.405 10.4875 10.405V8.29391Z" fill="#FAFAFA" mask="url(#path-1-outside-1_1484_6747)"/>
</g>
</g>
</svg>
