<svg width="24" height="24" viewBox="0 0 24 24" fill="none" xmlns="http://www.w3.org/2000/svg">
<g id="ic_mypage">
<g id="Group 16">
<g id="Rectangle 258">
<mask id="path-1-inside-1_1465_6703" fill="white">
<path d="M4 17.6055C4 15.6725 5.567 14.1055 7.5 14.1055H15.6579C17.5909 14.1055 19.1579 15.6725 19.1579 17.6055V20.0002H4V17.6055Z"/>
</mask>
<path d="M2.5 17.6055C2.5 14.844 4.73858 12.6055 7.5 12.6055H15.6579C18.4193 12.6055 20.6579 14.844 20.6579 17.6055H17.6579C17.6579 16.5009 16.7625 15.6055 15.6579 15.6055H7.5C6.39543 15.6055 5.5 16.5009 5.5 17.6055H2.5ZM19.1579 20.0002H4H19.1579ZM2.5 20.0002V17.6055C2.5 14.844 4.73858 12.6055 7.5 12.6055V15.6055C6.39543 15.6055 5.5 16.5009 5.5 17.6055V20.0002H2.5ZM15.6579 12.6055C18.4193 12.6055 20.6579 14.844 20.6579 17.6055V20.0002H17.6579V17.6055C17.6579 16.5009 16.7625 15.6055 15.6579 15.6055V12.6055Z" fill="black" mask="url(#path-1-inside-1_1465_6703)"/>
</g>
<circle id="Ellipse 54" cx="11.5789" cy="8.21053" r="3.46053" stroke="black" stroke-width="1.5"/>
</g>
</g>
</svg>
