<svg width="100" height="100" viewBox="0 0 100 100" fill="none" xmlns="http://www.w3.org/2000/svg">
<g id="logo">
<g id="Group 269">
<path id="Vector" d="M73.8462 33.8462H77.2308C80.8214 33.8462 84.265 35.2239 86.8039 37.6763C89.3429 40.1287 90.7693 43.4549 90.7693 46.9231C90.7693 50.3913 89.3429 53.7175 86.8039 56.1699C84.265 58.6223 80.8214 60 77.2308 60H73.8462" stroke="#321900" stroke-width="6.15385" stroke-linecap="round" stroke-linejoin="round"/>
<path id="Vector_2" d="M21.5386 29.231H73.8463V59.0534C73.8463 62.5687 72.4685 65.9401 70.0161 68.4257C67.5637 70.9114 64.2376 72.3079 60.7693 72.3079H34.6155C31.1473 72.3079 27.8211 70.9114 25.3687 68.4257C22.9163 65.9401 21.5386 62.5687 21.5386 59.0534V29.231Z" fill="#321900" stroke="#321900" stroke-width="3.07692" stroke-linecap="round"/>
</g>
</g>
</svg>
