<svg width="110" height="110" viewBox="0 0 110 110" fill="none" xmlns="http://www.w3.org/2000/svg">
<g id="&#234;&#184;&#176;&#235;&#179;&#184; &#237;&#148;&#132;&#235;&#161;&#156;&#237;&#149;&#132; &#236;&#157;&#180;&#235;&#175;&#184;&#236;&#167;&#128;">
<circle id="Ellipse 196" cx="55" cy="55" r="54.5" fill="#E5E3E1" stroke="#F1F1F1"/>
<g id="logo">
<g id="Group 269">
<path id="Vector" d="M74.0768 42.0771H76.7845C79.657 42.0771 82.4119 43.1793 84.443 45.1413C86.4742 47.1032 87.6153 49.7641 87.6153 52.5387C87.6153 55.3133 86.4742 57.9742 84.443 59.9361C82.4119 61.898 79.657 63.0002 76.7845 63.0002H74.0768" stroke="#FAFAFA" stroke-width="4.92308" stroke-linecap="round" stroke-linejoin="round"/>
<path id="Vector_2" d="M32.2307 38.3848H74.0769V62.2428C74.0769 65.055 72.9747 67.752 71.0127 69.7406C69.0508 71.7291 66.3899 72.8463 63.6153 72.8463H42.6923C39.9177 72.8463 37.2567 71.7291 35.2948 69.7406C33.3329 67.752 32.2307 65.055 32.2307 62.2428V38.3848Z" fill="#FAFAFA" stroke="#FAFAFA" stroke-width="2.46154" stroke-linecap="round"/>
</g>
</g>
</g>
</svg>
