<svg width="312" height="48" viewBox="0 0 312 48" fill="none" xmlns="http://www.w3.org/2000/svg">
<rect width="312" height="48" rx="12" fill="#FEE500"/>
<g clip-path="url(#clip0_545_10794)">
<g clip-path="url(#clip1_545_10794)">
<path fill-rule="evenodd" clip-rule="evenodd" d="M108.5 15.2642C103.33 15.2642 99.14 18.5016 99.14 22.4945C99.14 24.9778 100.761 27.1669 103.229 28.469L102.19 32.2624C102.099 32.5976 102.482 32.8648 102.776 32.6706L107.328 29.6663C107.712 29.7034 108.103 29.725 108.5 29.725C113.669 29.725 117.86 26.4876 117.86 22.4945C117.86 18.5016 113.669 15.2642 108.5 15.2642Z" fill="black"/>
</g>
<path d="M133.672 18.6562C133.672 22.9219 132.501 26.5781 127.297 29.1719L126.344 27.8594C128.79 26.6484 130.243 25.2422 131.063 23.5625L126.672 23.9844L126.454 22.4844L131.594 22.1562C131.774 21.5 131.883 20.8047 131.938 20.0625H127.188V18.6562H133.672ZM137.391 17.2656V22.7969H139.485V24.2188H137.391V31.3594H135.657V17.2656H137.391ZM147.501 18.6562C147.501 22.9219 146.329 26.5781 141.126 29.1719L140.172 27.8594C142.618 26.6484 144.071 25.2422 144.891 23.5625L140.501 23.9844L140.282 22.4844L145.422 22.1562C145.602 21.5 145.712 20.8047 145.766 20.0625H141.016V18.6562H147.501ZM151.219 17.2656V22.7969H153.313V24.2188H151.219V31.3594H149.485V17.2656H151.219ZM160.407 18.0625C163.438 18.0625 165.672 19.5781 165.672 21.875C165.672 23.9922 163.852 25.4062 161.266 25.6562V28.25H166.891V29.6719H153.985V28.25H159.547V25.6562C156.977 25.4062 155.157 23.9922 155.172 21.875C155.157 19.5781 157.391 18.0625 160.407 18.0625ZM160.407 19.4688C158.344 19.4531 156.86 20.3906 156.876 21.875C156.86 23.4062 158.344 24.3125 160.407 24.3125C162.501 24.3125 163.969 23.4062 163.969 21.875C163.969 20.3906 162.501 19.4531 160.407 19.4688ZM184.516 28.3125V29.75H171.61V28.3125H177.172V26.0156H173.141V21.3906H181.266V19.6406H173.11V18.2344H182.985V22.7656H174.876V24.5938H183.313V26.0156H178.891V28.3125H184.516ZM196.672 18.6406V20.2344C196.672 22.125 196.672 24.0781 196.157 27.0469L194.391 26.8906C194.938 24.1094 194.938 22.0625 194.938 20.2344V20.0469H186.797V18.6406H196.672ZM198.313 28.0312V29.4531H185.438V28.0312H198.313ZM211.032 17.2812V27.4844H209.282V17.2812H211.032ZM211.422 29.7031V31.1094H201.688V26.4531H203.438V29.7031H211.422ZM203.329 18.2031C205.469 18.2031 207.126 19.6875 207.126 21.7344C207.126 23.8281 205.469 25.2812 203.329 25.2812C201.172 25.2812 199.516 23.8281 199.516 21.7344C199.516 19.6875 201.172 18.2031 203.329 18.2031ZM203.329 19.7188C202.126 19.7188 201.204 20.5156 201.219 21.7344C201.204 22.9844 202.126 23.7656 203.329 23.7656C204.501 23.7656 205.422 22.9844 205.422 21.7344C205.422 20.5156 204.501 19.7188 203.329 19.7188Z" fill="black" fill-opacity="0.85"/>
</g>
<defs>
<clipPath id="clip0_545_10794">
<rect width="113.72" height="24" fill="white" transform="translate(99.14 12)"/>
</clipPath>
<clipPath id="clip1_545_10794">
<rect width="18.7199" height="18.72" fill="white" transform="translate(99.14 14.6401)"/>
</clipPath>
</defs>
</svg>
