<svg preserveAspectRatio="xMidYMid meet" viewBox="0 0 312 48" fill="none" xmlns="http://www.w3.org/2000/svg">
<rect width="312" height="48" rx="12" fill="#03C75A"/>
<g clip-path="url(#clip0_545_10795)">
<path d="M112.349 24.5627L106.417 16H101.5V32H106.651V23.436L112.583 32H117.5V16H112.349V24.5627Z" fill="white"/>
</g>
<path d="M128.297 18.6719V26.4375C129.68 26.4219 130.953 26.3203 132.391 26.0156L132.641 27.4844C130.844 27.875 129.297 27.9375 127.516 27.9375H126.562V18.6719H128.297ZM138.156 17.2656V31.3906H136.5V17.2656H138.156ZM135.125 17.5625V30.7188H133.484V23.2344H130.531V21.8281H133.484V17.5625H135.125ZM151.147 17.2656V31.4062H149.397V17.2656H151.147ZM143.538 18.2969C145.663 18.2969 147.209 20.2344 147.225 23.2812C147.209 26.3594 145.663 28.2812 143.538 28.2812C141.397 28.2812 139.85 26.3594 139.85 23.2812C139.85 20.2344 141.397 18.2969 143.538 18.2969ZM143.538 19.8594C142.334 19.8594 141.522 21.125 141.522 23.2812C141.522 25.4531 142.334 26.7188 143.538 26.7188C144.725 26.7188 145.538 25.4531 145.538 23.2812C145.538 21.125 144.725 19.8594 143.538 19.8594ZM164.669 17.2656V31.4062H162.95V23.75H160.075V27.9844H153.356V18.3594H155.106V21.875H158.372V18.3594H160.075V22.3281H162.95V17.2656H164.669ZM155.106 26.5938H158.372V23.2344H155.106V26.5938ZM182.556 28.3125V29.75H169.65V28.3125H175.213V26.0156H171.181V21.3906H179.306V19.6406H171.15V18.2344H181.025V22.7656H172.916V24.5938H181.353V26.0156H176.931V28.3125H182.556ZM194.312 18.6406V20.2344C194.312 22.125 194.312 24.0781 193.797 27.0469L192.031 26.8906C192.578 24.1094 192.578 22.0625 192.578 20.2344V20.0469H184.438V18.6406H194.312ZM195.953 28.0312V29.4531H183.078V28.0312H195.953ZM208.272 17.2812V27.4844H206.522V17.2812H208.272ZM208.662 29.7031V31.1094H198.928V26.4531H200.678V29.7031H208.662ZM200.569 18.2031C202.709 18.2031 204.366 19.6875 204.366 21.7344C204.366 23.8281 202.709 25.2812 200.569 25.2812C198.412 25.2812 196.756 23.8281 196.756 21.7344C196.756 19.6875 198.412 18.2031 200.569 18.2031ZM200.569 19.7188C199.366 19.7188 198.444 20.5156 198.459 21.7344C198.444 22.9844 199.366 23.7656 200.569 23.7656C201.741 23.7656 202.662 22.9844 202.662 21.7344C202.662 20.5156 201.741 19.7188 200.569 19.7188Z" fill="white"/>
<defs>
<clipPath id="clip0_545_10795">
<rect width="16" height="16" fill="white" transform="translate(101.5 16)"/>
</clipPath>
</defs>
</svg>
