<svg width="14" height="15" viewBox="0 0 14 15" fill="none" xmlns="http://www.w3.org/2000/svg">
<g id="Ic_gnb_details">
<path id="!" d="M7.50207 9.03919H6.4905L6.39623 3.75293H7.59633L7.50207 9.03919ZM6.27296 10.5221C6.27054 10.3916 6.30196 10.2707 6.36722 10.1595C6.43249 10.0483 6.52071 9.96011 6.6319 9.89485C6.7455 9.82959 6.86878 9.79696 7.00172 9.79696C7.12983 9.79696 7.24948 9.82959 7.36066 9.89485C7.47185 9.96011 7.56008 10.0483 7.62534 10.1595C7.69302 10.2707 7.72686 10.3916 7.72686 10.5221C7.72686 10.6526 7.69302 10.7735 7.62534 10.8847C7.56008 10.9959 7.47185 11.0841 7.36066 11.1493C7.24948 11.2146 7.12983 11.2472 7.00172 11.2472C6.86878 11.2472 6.7455 11.2146 6.6319 11.1493C6.52071 11.0841 6.43249 10.9959 6.36722 10.8847C6.30196 10.7735 6.27054 10.6526 6.27296 10.5221Z" fill="#999999"/>
<circle id="Ellipse 201" cx="7" cy="7.5" r="5.25" stroke="#D9D9D9" stroke-width="0.875"/>
</g>
</svg>
