<svg width="26" height="37" viewBox="0 0 26 37" fill="none" xmlns="http://www.w3.org/2000/svg">
<rect width="26" height="37" fill="#F5F5F5"/>
<g id="1&#236;&#176;&#168;">
<path d="M-306 -1610C-306 -1611.1 -305.105 -1612 -304 -1612H4062C4063.1 -1612 4064 -1611.1 4064 -1610V1424C4064 1425.1 4063.1 1426 4062 1426H-304C-305.105 1426 -306 1425.1 -306 1424V-1610Z" fill="#C6C6C6"/>
<path d="M-304 -1611H4062V-1613H-304V-1611ZM4063 -1610V1424H4065V-1610H4063ZM4062 1425H-304V1427H4062V1425ZM-305 1424V-1610H-307V1424H-305ZM-304 1425C-304.552 1425 -305 1424.55 -305 1424H-307C-307 1425.66 -305.657 1427 -304 1427V1425ZM4063 1424C4063 1424.55 4062.55 1425 4062 1425V1427C4063.66 1427 4065 1425.66 4065 1424H4063ZM4062 -1611C4062.55 -1611 4063 -1610.55 4063 -1610H4065C4065 -1611.66 4063.66 -1613 4062 -1613V-1611ZM-304 -1613C-305.657 -1613 -307 -1611.66 -307 -1610H-305C-305 -1610.55 -304.552 -1611 -304 -1611V-1613Z" fill="black" fill-opacity="0.1"/>
<g id="ic_search_map_mylocation">
<g id="Subtract">
<mask id="path-3-outside-1_546_20765" maskUnits="userSpaceOnUse" x="0" y="0.375" width="26" height="37" fill="black">
<rect fill="white" y="0.375" width="26" height="37"/>
<path fill-rule="evenodd" clip-rule="evenodd" d="M12.9294 35.875C12.9294 35.875 24.8587 21.5373 24.8587 13.3044C24.8587 6.71596 19.5178 1.375 12.9294 1.375C6.34096 1.375 1 6.71596 1 13.3044C1 21.5355 12.9294 35.875 12.9294 35.875ZM12.9628 17.4241C15.3319 17.4241 17.2524 15.5036 17.2524 13.1346C17.2524 10.7655 15.3319 8.84506 12.9628 8.84506C10.5938 8.84506 8.67333 10.7655 8.67333 13.1346C8.67333 15.5036 10.5938 17.4241 12.9628 17.4241Z"/>
</mask>
<path fill-rule="evenodd" clip-rule="evenodd" d="M12.9294 35.875C12.9294 35.875 24.8587 21.5373 24.8587 13.3044C24.8587 6.71596 19.5178 1.375 12.9294 1.375C6.34096 1.375 1 6.71596 1 13.3044C1 21.5355 12.9294 35.875 12.9294 35.875ZM12.9628 17.4241C15.3319 17.4241 17.2524 15.5036 17.2524 13.1346C17.2524 10.7655 15.3319 8.84506 12.9628 8.84506C10.5938 8.84506 8.67333 10.7655 8.67333 13.1346C8.67333 15.5036 10.5938 17.4241 12.9628 17.4241Z" fill="url(#paint0_linear_546_20765)"/>
<path d="M12.9294 35.875L12.5757 36.1692L12.9293 36.5942L13.283 36.1692L12.9294 35.875ZM24.3987 13.3044C24.3987 15.2658 23.6841 17.6349 22.5748 20.1166C21.4695 22.5892 19.9918 25.1315 18.5077 27.4273C17.0246 29.7217 15.5406 31.7614 14.427 33.2279C13.8704 33.9609 13.4067 34.5501 13.0826 34.9556C12.9206 35.1584 12.7934 35.3152 12.707 35.421C12.6638 35.474 12.6308 35.5142 12.6087 35.541C12.5976 35.5544 12.5893 35.5645 12.5837 35.5711C12.581 35.5745 12.5789 35.5769 12.5776 35.5785C12.5769 35.5794 12.5765 35.5799 12.5761 35.5803C12.576 35.5805 12.5759 35.5806 12.5758 35.5807C12.5758 35.5808 12.5758 35.5808 12.9294 35.875C13.283 36.1692 13.2831 36.1691 13.2832 36.1689C13.2833 36.1688 13.2835 36.1686 13.2837 36.1683C13.2841 36.1678 13.2847 36.1671 13.2855 36.1662C13.287 36.1643 13.2893 36.1616 13.2923 36.158C13.2982 36.1508 13.307 36.1402 13.3185 36.1262C13.3416 36.0983 13.3755 36.057 13.4197 36.0029C13.508 35.8947 13.6371 35.7354 13.8013 35.53C14.1296 35.1193 14.5979 34.5241 15.1597 33.7843C16.2828 32.3052 17.7812 30.2459 19.2804 27.9268C20.7786 25.609 22.2832 23.0233 23.4147 20.492C24.5422 17.9699 25.3187 15.4594 25.3187 13.3044H24.3987ZM12.9294 1.835C19.2637 1.835 24.3987 6.97001 24.3987 13.3044H25.3187C25.3187 6.46191 19.7718 0.915 12.9294 0.915V1.835ZM1.46 13.3044C1.46 6.97001 6.59501 1.835 12.9294 1.835V0.915C6.08691 0.915 0.54 6.46191 0.54 13.3044H1.46ZM12.9294 35.875C13.283 35.5808 13.283 35.5808 13.2829 35.5807C13.2829 35.5806 13.2828 35.5805 13.2826 35.5803C13.2823 35.58 13.2818 35.5794 13.2811 35.5786C13.2798 35.577 13.2778 35.5745 13.275 35.5712C13.2695 35.5645 13.2612 35.5544 13.2501 35.541C13.228 35.5142 13.195 35.474 13.1517 35.421C13.0653 35.3152 12.9382 35.1584 12.7761 34.9556C12.452 34.55 11.9884 33.9607 11.4318 33.2277C10.3182 31.761 8.83416 29.7211 7.351 27.4266C5.86693 25.1307 4.38919 22.5883 3.28391 20.1158C2.17458 17.6342 1.46 15.2653 1.46 13.3044H0.54C0.54 15.459 1.31659 17.9692 2.44401 20.4913C3.57549 23.0224 5.0801 25.6082 6.57837 27.9261C8.07755 30.2453 9.57588 32.3048 10.699 33.784C11.2608 34.5239 11.7292 35.1192 12.0574 35.5299C12.2216 35.7353 12.3507 35.8946 12.439 36.0028C12.4832 36.0569 12.5172 36.0983 12.5402 36.1262C12.5517 36.1402 12.5605 36.1508 12.5664 36.158C12.5694 36.1616 12.5717 36.1643 12.5732 36.1662C12.574 36.1671 12.5746 36.1678 12.575 36.1683C12.5752 36.1686 12.5754 36.1688 12.5755 36.1689C12.5757 36.1691 12.5757 36.1692 12.9294 35.875ZM16.7924 13.1346C16.7924 15.2496 15.0778 16.9641 12.9628 16.9641V17.8841C15.5859 17.8841 17.7124 15.7577 17.7124 13.1346H16.7924ZM12.9628 9.30506C15.0778 9.30506 16.7924 11.0196 16.7924 13.1346H17.7124C17.7124 10.5115 15.5859 8.38506 12.9628 8.38506V9.30506ZM9.13333 13.1346C9.13333 11.0196 10.8479 9.30506 12.9628 9.30506V8.38506C10.3398 8.38506 8.21333 10.5115 8.21333 13.1346H9.13333ZM12.9628 16.9641C10.8479 16.9641 9.13333 15.2496 9.13333 13.1346H8.21333C8.21333 15.7577 10.3398 17.8841 12.9628 17.8841V16.9641Z" fill="white" mask="url(#path-3-outside-1_546_20765)"/>
</g>
<circle id="Ellipse 38" cx="12.9633" cy="13.1346" r="4.28951" fill="#FAFAFA"/>
</g>
</g>
<defs>
<linearGradient id="paint0_linear_546_20765" x1="12.9294" y1="1.375" x2="12.9294" y2="35.875" gradientUnits="userSpaceOnUse">
<stop stop-color="#825A32"/>
<stop offset="1" stop-color="#1C130B"/>
</linearGradient>
</defs>
</svg>
