<svg width="26" height="37" viewBox="0 0 26 37" fill="none" xmlns="http://www.w3.org/2000/svg">
<mask id="path-1-outside-1_340_8582" maskUnits="userSpaceOnUse" x="0" y="0" width="26" height="37" fill="black">
<rect fill="white" width="26" height="37"/>
<path fill-rule="evenodd" clip-rule="evenodd" d="M12.9294 35.5C12.9294 35.5 24.8587 21.1623 24.8587 12.9294C24.8587 6.34096 19.5178 1 12.9294 1C6.34096 1 1 6.34096 1 12.9294C1 21.1605 12.9294 35.5 12.9294 35.5ZM12.9628 17.0491C15.3319 17.0491 17.2524 15.1286 17.2524 12.7596C17.2524 10.3905 15.3319 8.47006 12.9628 8.47006C10.5938 8.47006 8.67333 10.3905 8.67333 12.7596C8.67333 15.1286 10.5938 17.0491 12.9628 17.0491Z"/>
</mask>
<path fill-rule="evenodd" clip-rule="evenodd" d="M12.9294 35.5C12.9294 35.5 24.8587 21.1623 24.8587 12.9294C24.8587 6.34096 19.5178 1 12.9294 1C6.34096 1 1 6.34096 1 12.9294C1 21.1605 12.9294 35.5 12.9294 35.5ZM12.9628 17.0491C15.3319 17.0491 17.2524 15.1286 17.2524 12.7596C17.2524 10.3905 15.3319 8.47006 12.9628 8.47006C10.5938 8.47006 8.67333 10.3905 8.67333 12.7596C8.67333 15.1286 10.5938 17.0491 12.9628 17.0491Z" fill="url(#paint0_linear_340_8582)"/>
<path d="M12.9294 35.5L12.5757 35.7942L12.9293 36.2192L13.283 35.7942L12.9294 35.5ZM24.3987 12.9294C24.3987 14.8908 23.6841 17.2599 22.5748 19.7416C21.4695 22.2142 19.9918 24.7565 18.5077 27.0523C17.0246 29.3467 15.5406 31.3864 14.427 32.8529C13.8704 33.5859 13.4067 34.1751 13.0826 34.5806C12.9206 34.7834 12.7934 34.9402 12.707 35.046C12.6638 35.099 12.6308 35.1392 12.6087 35.166C12.5976 35.1794 12.5893 35.1895 12.5837 35.1961C12.581 35.1995 12.5789 35.2019 12.5776 35.2035C12.5769 35.2044 12.5765 35.2049 12.5761 35.2053C12.576 35.2055 12.5759 35.2056 12.5758 35.2057C12.5758 35.2058 12.5758 35.2058 12.9294 35.5C13.283 35.7942 13.2831 35.7941 13.2832 35.7939C13.2833 35.7938 13.2835 35.7936 13.2837 35.7933C13.2841 35.7928 13.2847 35.7921 13.2855 35.7912C13.287 35.7893 13.2893 35.7866 13.2923 35.783C13.2982 35.7758 13.307 35.7652 13.3185 35.7512C13.3416 35.7233 13.3755 35.682 13.4197 35.6279C13.508 35.5197 13.6371 35.3604 13.8013 35.155C14.1296 34.7443 14.5979 34.1491 15.1597 33.4093C16.2828 31.9302 17.7812 29.8709 19.2804 27.5518C20.7786 25.234 22.2832 22.6483 23.4147 20.117C24.5422 17.5949 25.3187 15.0844 25.3187 12.9294H24.3987ZM12.9294 1.46C19.2637 1.46 24.3987 6.59501 24.3987 12.9294H25.3187C25.3187 6.08691 19.7718 0.54 12.9294 0.54V1.46ZM1.46 12.9294C1.46 6.59501 6.59501 1.46 12.9294 1.46V0.54C6.08691 0.54 0.54 6.08691 0.54 12.9294H1.46ZM12.9294 35.5C13.283 35.2058 13.283 35.2058 13.2829 35.2057C13.2829 35.2056 13.2828 35.2055 13.2826 35.2053C13.2823 35.205 13.2818 35.2044 13.2811 35.2036C13.2798 35.202 13.2778 35.1995 13.275 35.1962C13.2695 35.1895 13.2612 35.1794 13.2501 35.166C13.228 35.1392 13.195 35.099 13.1517 35.046C13.0653 34.9402 12.9382 34.7834 12.7761 34.5806C12.452 34.175 11.9884 33.5857 11.4318 32.8527C10.3182 31.386 8.83416 29.3461 7.351 27.0516C5.86693 24.7557 4.38919 22.2133 3.28391 19.7408C2.17458 17.2592 1.46 14.8903 1.46 12.9294H0.54C0.54 15.084 1.31659 17.5942 2.44401 20.1163C3.57549 22.6474 5.0801 25.2332 6.57837 27.5511C8.07755 29.8703 9.57588 31.9298 10.699 33.409C11.2608 34.1489 11.7292 34.7442 12.0574 35.1549C12.2216 35.3603 12.3507 35.5196 12.439 35.6278C12.4832 35.6819 12.5172 35.7233 12.5402 35.7512C12.5517 35.7652 12.5605 35.7758 12.5664 35.783C12.5694 35.7866 12.5717 35.7893 12.5732 35.7912C12.574 35.7921 12.5746 35.7928 12.575 35.7933C12.5752 35.7936 12.5754 35.7938 12.5755 35.7939C12.5757 35.7941 12.5757 35.7942 12.9294 35.5ZM16.7924 12.7596C16.7924 14.8746 15.0778 16.5891 12.9628 16.5891V17.5091C15.5859 17.5091 17.7124 15.3827 17.7124 12.7596H16.7924ZM12.9628 8.93006C15.0778 8.93006 16.7924 10.6446 16.7924 12.7596H17.7124C17.7124 10.1365 15.5859 8.01006 12.9628 8.01006V8.93006ZM9.13333 12.7596C9.13333 10.6446 10.8479 8.93006 12.9628 8.93006V8.01006C10.3398 8.01006 8.21333 10.1365 8.21333 12.7596H9.13333ZM12.9628 16.5891C10.8479 16.5891 9.13333 14.8746 9.13333 12.7596H8.21333C8.21333 15.3827 10.3398 17.5091 12.9628 17.5091V16.5891Z" fill="white" mask="url(#path-1-outside-1_340_8582)"/>
<circle cx="12.9633" cy="12.7592" r="4.28951" fill="#FAFAFA"/>
<defs>
<linearGradient id="paint0_linear_340_8582" x1="12.9294" y1="1" x2="12.9294" y2="35.5" gradientUnits="userSpaceOnUse">
<stop stop-color="#825A32"/>
<stop offset="1" stop-color="#1C130B"/>
</linearGradient>
</defs>
</svg>
