<svg viewBox="0 0 40 40" preserveAspectRatio="none" fill="none" xmlns="http://www.w3.org/2000/svg">
<rect width="40" height="40" rx="20" fill="#333333" fill-opacity="0.65"/>
<mask id="path-2-inside-1_381_9971" fill="white">
<path fill-rule="evenodd" clip-rule="evenodd" d="M18.8065 13.4746C16.524 11.2476 12.8683 11.2926 10.6413 13.5751C8.41427 15.8575 8.45924 19.5132 10.7417 21.7403L15.9676 26.8391L20 30.7735L24.0324 26.8391L29.2583 21.7403C31.5408 19.5132 31.5857 15.8575 29.3587 13.5751C27.1317 11.2926 23.476 11.2476 21.1935 13.4746L20 14.6391L18.8065 13.4746Z"/>
</mask>
<path fill-rule="evenodd" clip-rule="evenodd" d="M18.8065 13.4746C16.524 11.2476 12.8683 11.2926 10.6413 13.5751C8.41427 15.8575 8.45924 19.5132 10.7417 21.7403L15.9676 26.8391L20 30.7735L24.0324 26.8391L29.2583 21.7403C31.5408 19.5132 31.5857 15.8575 29.3587 13.5751C27.1317 11.2926 23.476 11.2476 21.1935 13.4746L20 14.6391L18.8065 13.4746Z" fill="white"/>
<path d="M18.8065 13.4746L19.4466 12.8185L19.4466 12.8185L18.8065 13.4746ZM10.7417 21.7403L11.3819 21.0841L10.7417 21.7403ZM15.9676 26.8391L15.3275 27.4952L15.9676 26.8391ZM20 30.7735L19.3598 31.4296L20 32.0542L20.6402 31.4296L20 30.7735ZM24.0324 26.8391L24.6725 27.4952L24.0324 26.8391ZM29.2583 21.7403L28.6181 21.0841L29.2583 21.7403ZM21.1935 13.4746L21.8337 14.1307L21.1935 13.4746ZM20 14.6391L19.3598 15.2952L20 15.9198L20.6402 15.2952L20 14.6391ZM11.2974 14.2152C13.1709 12.2951 16.2462 12.2572 18.1663 14.1307L19.4466 12.8185C16.8018 10.2379 12.5658 10.29 9.98518 12.9349L11.2974 14.2152ZM11.3819 21.0841C9.46175 19.2107 9.42392 16.1354 11.2974 14.2152L9.98518 12.9349C7.40461 15.5797 7.45672 19.8158 10.1016 22.3964L11.3819 21.0841ZM16.6078 26.183L11.3819 21.0841L10.1016 22.3964L15.3275 27.4952L16.6078 26.183ZM20.6402 30.1174L16.6078 26.183L15.3275 27.4952L19.3598 31.4296L20.6402 30.1174ZM23.3922 26.183L19.3598 30.1174L20.6402 31.4296L24.6725 27.4952L23.3922 26.183ZM28.6181 21.0841L23.3922 26.183L24.6725 27.4952L29.8984 22.3964L28.6181 21.0841ZM28.7026 14.2152C30.5761 16.1354 30.5382 19.2107 28.6181 21.0841L29.8984 22.3964C32.5433 19.8158 32.5954 15.5797 30.0148 12.9349L28.7026 14.2152ZM21.8337 14.1307C23.7538 12.2572 26.8291 12.2951 28.7026 14.2152L30.0148 12.9349C27.4342 10.29 23.1982 10.2379 20.5534 12.8185L21.8337 14.1307ZM20.6402 15.2952L21.8337 14.1307L20.5534 12.8185L19.3598 13.983L20.6402 15.2952ZM18.1663 14.1307L19.3598 15.2952L20.6402 13.983L19.4466 12.8185L18.1663 14.1307Z" fill="#999999" mask="url(#path-2-inside-1_381_9971)"/>
</svg>
