<svg viewBox="0 0 26 18" preserveAspectRatio="none" fill="none" xmlns="http://www.w3.org/2000/svg">
<rect width="26" height="18" rx="8" fill="#F1F1F1"/>
<path d="M11.5391 5.10938V13.791H10.7773V9.24023H8.70703V8.60547H10.7773V5.10938H11.5391ZM8.72656 6.05664C8.72656 8.51758 7.68164 10.7051 4.78125 12.1406L4.36133 11.5254C6.71484 10.3877 7.80371 8.71777 7.95508 6.68164H4.74219V6.05664H8.72656ZM19.9121 5.10938V13.8105H19.1504V5.10938H19.9121ZM17.2754 5.91992V9.00586H14.0332V11.0566C15.4736 11.0566 16.7578 10.9932 18.3105 10.7441L18.3887 11.3887C16.7871 11.6426 15.4688 11.7012 13.9746 11.7012H13.252V8.38086H16.5039V6.55469H13.2324V5.91992H17.2754Z" fill="#333333"/>
</svg>
