<svg viewBox="0 0 20 20" fill="none" xmlns="http://www.w3.org/2000/svg">
<path d="M9.04894 2.92705C9.3483 2.00574 10.6517 2.00574 10.9511 2.92705L12.0206 6.21885C12.1545 6.63087 12.5385 6.90983 12.9717 6.90983H16.4329C17.4016 6.90983 17.8044 8.14945 17.0207 8.71885L14.2205 10.7533C13.87 11.0079 13.7234 11.4593 13.8572 11.8713L14.9268 15.1631C15.2261 16.0844 14.1717 16.8506 13.388 16.2812L10.5878 14.2467C10.2373 13.9921 9.7627 13.9921 9.41221 14.2467L6.61204 16.2812C5.82833 16.8506 4.77385 16.0844 5.0732 15.1631L6.14277 11.8713C6.27665 11.4593 6.12999 11.0079 5.7795 10.7533L2.97933 8.71885C2.19562 8.14945 2.59839 6.90983 3.56712 6.90983H7.02832C7.46154 6.90983 7.8455 6.63087 7.97937 6.21885L9.04894 2.92705Z" fill="#999999"/>
<path fill-rule="evenodd" clip-rule="evenodd" d="M9.99995 2.23608C9.59931 2.23608 9.19856 2.46643 9.0489 2.92706L7.97932 6.21887C7.84541 6.63086 7.4615 6.90985 7.02827 6.90985H3.56709C2.59834 6.90985 2.19563 8.14948 2.97932 8.71887L5.77949 10.7533C6.12995 11.0079 6.27656 11.4593 6.14277 11.8713L5.07319 15.1631C4.77375 16.0844 5.82832 16.8505 6.61201 16.2811L9.41218 14.2467C9.58735 14.1194 9.79365 14.0557 9.99995 14.0557V2.23608Z" fill="#FAFAFA"/>
</svg>
