<svg viewBox="0 0 145 60" preserveAspectRatio="xMinYMin meet" fill="none" xmlns="http://www.w3.org/2000/svg">
<g filter="url(#filter0_bd_2275_11774)">
<path d="M8 22C8 9.84974 17.8497 0 30 0H115C127.15 0 137 9.84974 137 22C137 34.1503 127.15 44 115 44H8V22Z" fill="white" shape-rendering="crispEdges"/>
<rect x="23" y="12" width="20" height="20" rx="10" fill="#FEE500"/>
<path fill-rule="evenodd" clip-rule="evenodd" d="M33.0001 18C30.633 18 28.7144 19.4824 28.7144 21.3106C28.7144 22.4476 29.4565 23.45 30.5865 24.0462L30.111 25.7831C30.069 25.9366 30.2446 26.0589 30.3793 25.97L32.4636 24.5944C32.6395 24.6114 32.8182 24.6213 33.0001 24.6213C35.367 24.6213 37.2858 23.139 37.2858 21.3106C37.2858 19.4824 35.367 18 33.0001 18Z" fill="black"/>
<path d="M57.8359 16.0742C57.8359 19.8066 56.8105 23.0059 52.2578 25.2754L51.4238 24.127C53.5635 23.0674 54.835 21.8369 55.5527 20.3672L51.7109 20.7363L51.5195 19.4238L56.0176 19.1367C56.1748 18.5625 56.2705 17.9541 56.3184 17.3047H52.1621V16.0742H57.8359ZM61.0898 14.8574V19.6973H62.9219V20.9414H61.0898V27.1895H59.5723V14.8574H61.0898ZM69.5855 16.0742C69.5855 19.8066 68.5602 23.0059 64.0074 25.2754L63.1734 24.127C65.3131 23.0674 66.5846 21.8369 67.3023 20.3672L63.4605 20.7363L63.2691 19.4238L67.7672 19.1367C67.9244 18.5625 68.0201 17.9541 68.068 17.3047H63.9117V16.0742H69.5855ZM72.8395 14.8574V19.6973H74.6715V20.9414H72.8395V27.1895H71.3219V14.8574H72.8395ZM80.5285 15.5547C83.1809 15.5547 85.1359 16.8809 85.1359 18.8906C85.1359 20.7432 83.5432 21.9805 81.2805 22.1992V24.4688H86.2023V25.7129H74.9094V24.4688H79.7766V22.1992C77.5275 21.9805 75.9348 20.7432 75.9484 18.8906C75.9348 16.8809 77.8898 15.5547 80.5285 15.5547ZM80.5285 16.7852C78.7238 16.7715 77.425 17.5918 77.4387 18.8906C77.425 20.2305 78.7238 21.0234 80.5285 21.0234C82.3605 21.0234 83.6457 20.2305 83.6457 18.8906C83.6457 17.5918 82.3605 16.7715 80.5285 16.7852ZM99.9262 14.8574V21.1191H98.3949V14.8574H99.9262ZM96.1937 15.3633C96.1801 18.6719 94.184 20.5586 90.3559 21.3652L89.8227 20.1348C92.892 19.5332 94.3275 18.248 94.5121 16.5938H90.4789V15.3633H96.1937ZM99.9262 21.625V24.8516H93.2816V25.9043H100.295V27.0938H91.7504V23.7441H98.3949V22.8145H91.723V21.625H99.9262ZM105.824 17.3867C105.824 18.7129 106.822 20.0117 108.764 20.5312L108.08 21.6934C106.645 21.3174 105.633 20.4971 105.086 19.4375C104.532 20.5996 103.493 21.502 102.037 21.9258L101.312 20.7227C103.268 20.2031 104.307 18.8359 104.307 17.3867V17.3457H101.723V16.1426H104.307V14.8027H105.838V16.1426H108.408V17.3457H105.824V17.3867ZM111.129 14.8574V17.7285H112.852V18.9863H111.129V21.9395H109.611V14.8574H111.129ZM111.307 22.5137V23.7305H108.039C108.326 24.7559 109.714 25.7129 111.826 26.0137L111.279 27.1758C109.345 26.9023 107.882 26.0752 107.164 24.9473C106.453 26.0684 105.004 26.875 103.09 27.1484L102.529 26C104.648 25.7061 106.022 24.7832 106.316 23.7305H103.035V22.5137H111.307ZM123.453 14.8574V27.2168H121.921V14.8574H123.453ZM119.761 16.1699C119.761 19.8477 118.339 22.9785 114.005 25.0293L113.213 23.8125C116.446 22.2744 117.95 20.1826 118.216 17.373H113.841V16.1699H119.761Z" fill="black"/>
</g>
<defs>
<filter id="filter0_bd_2275_11774" x="-12" y="-20" width="169" height="84" filterUnits="userSpaceOnUse" color-interpolation-filters="sRGB">
<feFlood flood-opacity="0" result="BackgroundImageFix"/>
<feGaussianBlur in="BackgroundImageFix" stdDeviation="10"/>
<feComposite in2="SourceAlpha" operator="in" result="effect1_backgroundBlur_2275_11774"/>
<feColorMatrix in="SourceAlpha" type="matrix" values="0 0 0 0 0 0 0 0 0 0 0 0 0 0 0 0 0 0 127 0" result="hardAlpha"/>
<feOffset dy="8"/>
<feGaussianBlur stdDeviation="4"/>
<feComposite in2="hardAlpha" operator="out"/>
<feColorMatrix type="matrix" values="0 0 0 0 0 0 0 0 0 0 0 0 0 0 0 0 0 0 0.04 0"/>
<feBlend mode="normal" in2="effect1_backgroundBlur_2275_11774" result="effect2_dropShadow_2275_11774"/>
<feBlend mode="normal" in="SourceGraphic" in2="effect2_dropShadow_2275_11774" result="shape"/>
</filter>
</defs>
</svg>
