<svg  viewBox="0 0 145 60" preserveAspectRatio="xMinYMin meet" fill="none" xmlns="http://www.w3.org/2000/svg">
<g filter="url(#filter0_bd_2275_11770)">
<path d="M8 22C8 9.84974 17.8497 0 30 0H115C127.15 0 137 9.84974 137 22C137 34.1503 127.15 44 115 44H8V22Z" fill="white" shape-rendering="crispEdges"/>
<rect x="23" y="12" width="20" height="20" rx="10" fill="#03C75A"/>
<path d="M34.4246 22.2813L31.4584 18H29V26H31.5754V21.718L34.5416 26H37V18H34.4246V22.2813Z" fill="#FAFAFA"/>
<path d="M53.4473 16.0879V22.8828C54.6572 22.8691 55.7715 22.7803 57.0293 22.5137L57.248 23.7988C55.6758 24.1406 54.3223 24.1953 52.7637 24.1953H51.9297V16.0879H53.4473ZM62.0742 14.8574V27.2168H60.625V14.8574H62.0742ZM59.4219 15.1172V26.6289H57.9863V20.0801H55.4023V18.8496H57.9863V15.1172H59.4219ZM73.441 14.8574V27.2305H71.9098V14.8574H73.441ZM66.7828 15.7598C68.6422 15.7598 69.9957 17.4551 70.0094 20.1211C69.9957 22.8145 68.6422 24.4961 66.7828 24.4961C64.9098 24.4961 63.5562 22.8145 63.5562 20.1211C63.5562 17.4551 64.9098 15.7598 66.7828 15.7598ZM66.7828 17.127C65.7301 17.127 65.0191 18.2344 65.0191 20.1211C65.0191 22.0215 65.7301 23.1289 66.7828 23.1289C67.8219 23.1289 68.5328 22.0215 68.5328 20.1211C68.5328 18.2344 67.8219 17.127 66.7828 17.127ZM85.2727 14.8574V27.2305H83.7687V20.5312H81.2531V24.2363H75.3742V15.8145H76.9055V18.8906H79.7629V15.8145H81.2531V19.2871H83.7687V14.8574H85.2727ZM76.9055 23.0195H79.7629V20.0801H76.9055V23.0195ZM99.9262 14.8574V21.1191H98.3949V14.8574H99.9262ZM96.1937 15.3633C96.1801 18.6719 94.184 20.5586 90.3559 21.3652L89.8227 20.1348C92.892 19.5332 94.3275 18.248 94.5121 16.5938H90.4789V15.3633H96.1937ZM99.9262 21.625V24.8516H93.2816V25.9043H100.295V27.0938H91.7504V23.7441H98.3949V22.8145H91.723V21.625H99.9262ZM105.824 17.3867C105.824 18.7129 106.822 20.0117 108.764 20.5312L108.08 21.6934C106.645 21.3174 105.633 20.4971 105.086 19.4375C104.532 20.5996 103.493 21.502 102.037 21.9258L101.312 20.7227C103.268 20.2031 104.307 18.8359 104.307 17.3867V17.3457H101.723V16.1426H104.307V14.8027H105.838V16.1426H108.408V17.3457H105.824V17.3867ZM111.129 14.8574V17.7285H112.852V18.9863H111.129V21.9395H109.611V14.8574H111.129ZM111.307 22.5137V23.7305H108.039C108.326 24.7559 109.714 25.7129 111.826 26.0137L111.279 27.1758C109.345 26.9023 107.882 26.0752 107.164 24.9473C106.453 26.0684 105.004 26.875 103.09 27.1484L102.529 26C104.648 25.7061 106.022 24.7832 106.316 23.7305H103.035V22.5137H111.307ZM123.453 14.8574V27.2168H121.921V14.8574H123.453ZM119.761 16.1699C119.761 19.8477 118.339 22.9785 114.005 25.0293L113.213 23.8125C116.446 22.2744 117.95 20.1826 118.216 17.373H113.841V16.1699H119.761Z" fill="black"/>
</g>
<defs>
<filter id="filter0_bd_2275_11770" x="-12" y="-20" width="169" height="84" filterUnits="userSpaceOnUse" color-interpolation-filters="sRGB">
<feFlood flood-opacity="0" result="BackgroundImageFix"/>
<feGaussianBlur in="BackgroundImageFix" stdDeviation="10"/>
<feComposite in2="SourceAlpha" operator="in" result="effect1_backgroundBlur_2275_11770"/>
<feColorMatrix in="SourceAlpha" type="matrix" values="0 0 0 0 0 0 0 0 0 0 0 0 0 0 0 0 0 0 127 0" result="hardAlpha"/>
<feOffset dy="8"/>
<feGaussianBlur stdDeviation="4"/>
<feComposite in2="hardAlpha" operator="out"/>
<feColorMatrix type="matrix" values="0 0 0 0 0 0 0 0 0 0 0 0 0 0 0 0 0 0 0.04 0"/>
<feBlend mode="normal" in2="effect1_backgroundBlur_2275_11770" result="effect2_dropShadow_2275_11770"/>
<feBlend mode="normal" in="SourceGraphic" in2="effect2_dropShadow_2275_11770" result="shape"/>
</filter>
</defs>
</svg>
