<svg width="99" height="51" viewBox="0 0 99 51" fill="none" xmlns="http://www.w3.org/2000/svg">
<g filter="url(#filter0_bd_1403_3684)">
<rect x="8" width="83" height="35" rx="17.5" fill="white" shape-rendering="crispEdges"/>
<rect x="16" y="8" width="19" height="19" rx="9.5" fill="#321900"/>
<mask id="path-3-outside-1_1403_3684" maskUnits="userSpaceOnUse" x="21" y="11.689" width="9" height="13" fill="black">
<rect fill="white" x="21" y="11.689" width="9" height="13"/>
<path fill-rule="evenodd" clip-rule="evenodd" d="M25.5 22.811C25.5 22.811 29 18.6045 29 16.189C29 14.256 27.433 12.689 25.5 12.689C23.567 12.689 22 14.256 22 16.189C22 18.6039 25.5 22.811 25.5 22.811ZM25.5097 17.3976C26.2048 17.3976 26.7682 16.8342 26.7682 16.1391C26.7682 15.4441 26.2048 14.8806 25.5097 14.8806C24.8147 14.8806 24.2512 15.4441 24.2512 16.1391C24.2512 16.8342 24.8147 17.3976 25.5097 17.3976Z"/>
</mask>
<path d="M25.5 22.811L24.8234 23.374L25.5 24.1872L26.1766 23.374L25.5 22.811ZM28.1198 16.189C28.1198 16.6076 27.9604 17.1882 27.6496 17.8835C27.3465 18.5615 26.9347 19.2722 26.5108 19.928C26.0887 20.581 25.6649 21.1637 25.3459 21.5837C25.1868 21.7933 25.0546 21.9613 24.9628 22.076C24.917 22.1334 24.8813 22.1774 24.8575 22.2066C24.8456 22.2212 24.8366 22.232 24.8309 22.239C24.828 22.2425 24.8259 22.245 24.8247 22.2465C24.824 22.2473 24.8236 22.2478 24.8234 22.2481C24.8233 22.2482 24.8232 22.2483 24.8232 22.2483C24.8232 22.2483 24.8233 22.2482 24.8233 22.2482C24.8233 22.2482 24.8234 22.2481 25.5 22.811C26.1766 23.374 26.1767 23.3739 26.1768 23.3738C26.1769 23.3737 26.177 23.3736 26.1771 23.3734C26.1773 23.3732 26.1776 23.3729 26.1779 23.3725C26.1785 23.3717 26.1793 23.3707 26.1804 23.3694C26.1825 23.3669 26.1854 23.3633 26.1892 23.3588C26.1967 23.3497 26.2074 23.3367 26.2211 23.3198C26.2486 23.2862 26.2881 23.2375 26.3379 23.1751C26.4376 23.0504 26.5789 22.8709 26.7479 22.6483C27.0851 22.2042 27.5363 21.5842 27.9892 20.8836C28.4403 20.1858 28.9035 19.392 29.2567 18.6019C29.6021 17.8291 29.8802 16.9781 29.8802 16.189H28.1198ZM25.5 13.5691C26.9469 13.5691 28.1198 14.7421 28.1198 16.189H29.8802C29.8802 13.7699 27.9191 11.8088 25.5 11.8088V13.5691ZM22.8802 16.189C22.8802 14.7421 24.0531 13.5691 25.5 13.5691V11.8088C23.0809 11.8088 21.1198 13.7699 21.1198 16.189H22.8802ZM25.5 22.811C26.1766 22.2481 26.1767 22.2482 26.1768 22.2483C26.1768 22.2483 26.1768 22.2483 26.1768 22.2483C26.1768 22.2483 26.1767 22.2482 26.1766 22.2481C26.1764 22.2479 26.176 22.2473 26.1754 22.2466C26.1741 22.2451 26.172 22.2425 26.1691 22.2391C26.1634 22.2321 26.1545 22.2212 26.1425 22.2066C26.1187 22.1774 26.083 22.1334 26.0372 22.0761C25.9455 21.9613 25.8133 21.7933 25.6541 21.5837C25.3352 21.1636 24.9114 20.5809 24.4892 19.9278C24.0653 19.272 23.6535 18.5612 23.3504 17.8833C23.0396 17.188 22.8802 16.6075 22.8802 16.189H21.1198C21.1198 16.9779 21.3979 17.8289 21.7433 18.6017C22.0965 19.3918 22.5597 20.1856 23.0108 20.8834C23.4636 21.584 23.9148 22.204 24.2521 22.6482C24.4211 22.8708 24.5623 23.0503 24.662 23.175C24.7119 23.2374 24.7514 23.2862 24.7788 23.3198C24.7926 23.3366 24.8033 23.3497 24.8108 23.3587C24.8145 23.3633 24.8175 23.3668 24.8196 23.3694C24.8206 23.3707 24.8215 23.3717 24.8221 23.3724C24.8224 23.3728 24.8227 23.3731 24.8229 23.3734C24.823 23.3735 24.8231 23.3737 24.8232 23.3737C24.8233 23.3738 24.8234 23.374 25.5 22.811ZM25.8881 16.1391C25.8881 16.3481 25.7187 16.5175 25.5097 16.5175V18.2778C26.6909 18.2778 27.6484 17.3203 27.6484 16.1391H25.8881ZM25.5097 15.7608C25.7187 15.7608 25.8881 15.9302 25.8881 16.1391H27.6484C27.6484 14.9579 26.6909 14.0004 25.5097 14.0004V15.7608ZM25.1314 16.1391C25.1314 15.9302 25.3008 15.7608 25.5097 15.7608V14.0004C24.3286 14.0004 23.371 14.9579 23.371 16.1391H25.1314ZM25.5097 16.5175C25.3008 16.5175 25.1314 16.3481 25.1314 16.1391H23.371C23.371 17.3203 24.3286 18.2778 25.5097 18.2778V16.5175Z" fill="#FAFAFA" mask="url(#path-3-outside-1_1403_3684)"/>
<path d="M53.6094 10.9121V17.1465H52.3105V10.9121H53.6094ZM49.9316 11.459C49.918 14.6719 47.8262 16.5723 44.1211 17.3926L43.6426 16.3398C46.7119 15.6973 48.3115 14.3232 48.5098 12.5254H44.2852V11.459H49.9316ZM53.6094 17.6934V20.7695H46.8828V22.0137H54.0195V23.0391H45.5977V19.7988H52.3105V18.7188H45.5566V17.6934H53.6094ZM59.4937 13.4414C59.4937 14.8359 60.6012 16.1484 62.4742 16.668L61.8863 17.666C60.4576 17.2695 59.4117 16.4082 58.8648 15.3008C58.3248 16.5107 57.2516 17.4541 55.8023 17.8984L55.1734 16.873C57.0465 16.3398 58.2086 14.9727 58.2086 13.4414V13.3047H55.5426V12.2656H58.2086V10.8574H59.5074V12.2656H62.1598V13.3047H59.4937V13.4414ZM64.8258 10.9121V13.8516H66.6031V14.9316H64.8258V17.9805H63.527V10.9121H64.8258ZM65.0172 18.5957V19.6348H61.6676C61.9 20.7764 63.4723 21.8223 65.523 22.123L65.0445 23.1211C63.1852 22.834 61.6539 21.9795 60.943 20.8105C60.2389 21.9727 58.7213 22.8135 56.8687 23.1074L56.3902 22.1094C58.4479 21.8223 59.9996 20.8105 60.2457 19.6348H56.8824V18.5957H65.0172ZM77.1359 10.9121V23.1621H75.8234V10.9121H77.1359ZM73.4855 12.2246C73.4855 15.8066 71.9543 18.9238 67.757 20.9336L67.0734 19.8809C70.3342 18.3291 71.9201 16.1211 72.173 13.2637H67.6613V12.2246H73.4855Z" fill="black"/>
</g>
<defs>
<filter id="filter0_bd_1403_3684" x="-12" y="-20" width="123" height="75" filterUnits="userSpaceOnUse" color-interpolation-filters="sRGB">
<feFlood flood-opacity="0" result="BackgroundImageFix"/>
<feGaussianBlur in="BackgroundImageFix" stdDeviation="10"/>
<feComposite in2="SourceAlpha" operator="in" result="effect1_backgroundBlur_1403_3684"/>
<feColorMatrix in="SourceAlpha" type="matrix" values="0 0 0 0 0 0 0 0 0 0 0 0 0 0 0 0 0 0 127 0" result="hardAlpha"/>
<feOffset dy="8"/>
<feGaussianBlur stdDeviation="4"/>
<feComposite in2="hardAlpha" operator="out"/>
<feColorMatrix type="matrix" values="0 0 0 0 0 0 0 0 0 0 0 0 0 0 0 0 0 0 0.04 0"/>
<feBlend mode="normal" in2="effect1_backgroundBlur_1403_3684" result="effect2_dropShadow_1403_3684"/>
<feBlend mode="normal" in="SourceGraphic" in2="effect2_dropShadow_1403_3684" result="shape"/>
</filter>
</defs>
</svg>
