<svg viewBox="0 0 88 22" preserveAspectRatio="none" fill="none" xmlns="http://www.w3.org/2000/svg">
<path d="M0 4C0 1.79086 1.79086 0 4 0H84C86.2091 0 88 1.79086 88 4V18C88 20.2091 86.2091 22 84 22H4C1.79086 22 0 20.2091 0 18V4Z" fill="#FAFAFA"/>
<path d="M12.5703 9.79492C12.502 9.14062 11.9258 8.75977 11.1152 8.75977C10.2461 8.75977 9.69922 9.19922 9.69922 9.80469C9.69922 10.4785 10.4316 10.7324 10.9883 10.8691L11.6719 11.0547C12.5801 11.2695 13.7031 11.7676 13.7129 13.0469C13.7031 14.2383 12.7559 15.1172 11.0859 15.1172C9.50391 15.1172 8.50781 14.3262 8.43945 13.0371H9.51367C9.58203 13.8086 10.2559 14.1797 11.0859 14.1797C11.9844 14.1797 12.6387 13.7207 12.6484 13.0273C12.6387 12.4121 12.0625 12.1582 11.3105 11.9629L10.4707 11.7383C9.33789 11.4258 8.625 10.8496 8.625 9.86328C8.625 8.64258 9.71875 7.83203 11.1445 7.83203C12.5801 7.83203 13.5859 8.65234 13.6152 9.79492H12.5703ZM14.5273 16.9922V9.69727H15.543V10.5566H15.6309C15.8164 10.2246 16.1777 9.62891 17.1543 9.62891C18.4336 9.62891 19.3809 10.6348 19.3809 12.3633C19.3809 14.0723 18.4531 15.1074 17.1641 15.1074C16.1973 15.1074 15.8164 14.5215 15.6309 14.1699H15.5723V16.9922H14.5273ZM15.5527 12.3438C15.5527 13.457 16.041 14.2188 16.9297 14.2188C17.8477 14.2188 18.3262 13.4082 18.3262 12.3438C18.3262 11.2988 17.8574 10.5176 16.9297 10.5176C16.0312 10.5176 15.5527 11.2402 15.5527 12.3438ZM22.4512 15.1074C20.8887 15.1074 19.9316 14.0332 19.9316 12.3828C19.9316 10.752 20.9082 9.62891 22.3828 9.62891C23.5938 9.62891 24.7363 10.3809 24.7363 12.2949V12.666H20.9668C20.9961 13.6719 21.5869 14.248 22.4609 14.248C23.0566 14.248 23.4375 13.9941 23.6133 13.6719H24.668C24.4336 14.5312 23.6133 15.1074 22.4512 15.1074ZM20.9766 11.8848H23.7109C23.7109 11.0742 23.1934 10.4883 22.3926 10.4883C21.5576 10.4883 21.0156 11.1328 20.9766 11.8848ZM27.7676 15.1074C26.2246 15.1074 25.2871 13.9648 25.2871 12.373C25.2871 10.752 26.2539 9.62891 27.748 9.62891C28.959 9.62891 29.8379 10.3418 29.9453 11.416H28.9297C28.8223 10.918 28.4219 10.498 27.7676 10.498C26.9082 10.498 26.332 11.2109 26.332 12.3438C26.332 13.5059 26.8984 14.2188 27.7676 14.2188C28.3535 14.2188 28.8027 13.8965 28.9297 13.3203H29.9453C29.8281 14.3457 29.0176 15.1074 27.7676 15.1074ZM30.6816 15V9.69727H31.7266V15H30.6816ZM31.209 8.87695C30.8477 8.87695 30.5449 8.60352 30.5449 8.26172C30.5449 7.91992 30.8477 7.64648 31.209 7.64648C31.5605 7.64648 31.8633 7.91992 31.8633 8.26172C31.8633 8.60352 31.5605 8.87695 31.209 8.87695ZM32.502 13.5059C32.502 12.2949 33.5273 11.9824 34.4844 11.9141C34.8359 11.8896 35.6318 11.8457 35.8809 11.8359L35.8711 11.416C35.8711 10.8203 35.5098 10.4688 34.7969 10.4688C34.1816 10.4688 33.8105 10.752 33.7031 11.1426H32.668C32.7656 10.2637 33.5859 9.62891 34.8359 9.62891C35.6758 9.62891 36.916 9.94141 36.916 11.4746V15H35.9004V14.2773H35.8613C35.6562 14.6777 35.168 15.1172 34.2891 15.1172C33.2832 15.1172 32.502 14.541 32.502 13.5059ZM33.5176 13.5156C33.5176 14.0234 33.9375 14.2871 34.5234 14.2871C35.373 14.2871 35.8809 13.7207 35.8809 13.0859V12.5977L34.6309 12.6855C33.9473 12.7344 33.5176 12.9883 33.5176 13.5156ZM38.9707 7.92969V15H37.9258V7.92969H38.9707ZM42.4707 9.69727V10.5273H41.3867V13.4375C41.3867 14.0332 41.6895 14.1406 42.0215 14.1504C42.168 14.1504 42.4023 14.1309 42.5488 14.1211V15.0293C42.4023 15.0488 42.1777 15.0684 41.8945 15.0684C41.0742 15.0684 40.3418 14.6191 40.3516 13.6523V10.5273H39.5703V9.69727H40.3516V8.42773H41.3867V9.69727H42.4707ZM43.8809 16.9922C43.666 16.9922 43.4609 16.9824 43.3242 16.9629V16.0938C43.4414 16.1035 43.6465 16.1133 43.793 16.1133C44.1152 16.1133 44.3887 16.084 44.6328 15.4199L44.7598 15.0684L42.8164 9.69727H43.9297L45.2676 13.8086H45.3262L46.6641 9.69727H47.7871L45.5996 15.7031C45.2969 16.543 44.75 16.9922 43.8809 16.9922ZM55.4512 10.2344C55.2754 9.32617 54.5234 8.81836 53.625 8.81836C52.4043 8.81836 51.4961 9.75586 51.4961 11.4648C51.4961 13.1836 52.4141 14.1113 53.625 14.1113C54.5137 14.1113 55.2656 13.6133 55.4512 12.7148L56.5352 12.7246C56.3105 14.1211 55.168 15.0977 53.6152 15.0977C51.7695 15.0977 50.4316 13.7207 50.4316 11.4648C50.4316 9.19922 51.7793 7.83203 53.6152 7.83203C55.1094 7.83203 56.291 8.71094 56.5352 10.2344H55.4512ZM59.6055 15.1074C58.1016 15.1074 57.125 14.0137 57.125 12.373C57.125 10.7227 58.1016 9.62891 59.6055 9.62891C61.0996 9.62891 62.0762 10.7227 62.0762 12.373C62.0762 14.0137 61.0996 15.1074 59.6055 15.1074ZM59.6055 14.2383C60.5625 14.2383 61.0215 13.3887 61.0215 12.373C61.0215 11.3574 60.5625 10.4883 59.6055 10.4883C58.6289 10.4883 58.1699 11.3574 58.1699 12.373C58.1699 13.3887 58.6289 14.2383 59.6055 14.2383ZM65.3809 9.69727V10.5273H64.2383V15H63.1934V10.5273H62.373V9.69727H63.1934V9.08203C63.1934 8.13477 63.7988 7.59766 64.7754 7.59766C65.0293 7.59766 65.2832 7.62695 65.4883 7.66602V8.53516C65.293 8.50586 65.1465 8.49609 65.0488 8.49609C64.4922 8.49609 64.2383 8.7207 64.2383 9.23828V9.69727H65.3809ZM68.6074 9.69727V10.5273H67.4648V15H66.4199V10.5273H65.5996V9.69727H66.4199V9.08203C66.4199 8.13477 67.0254 7.59766 68.002 7.59766C68.2559 7.59766 68.5098 7.62695 68.7148 7.66602V8.53516C68.5195 8.50586 68.373 8.49609 68.2754 8.49609C67.7188 8.49609 67.4648 8.7207 67.4648 9.23828V9.69727H68.6074ZM71.375 15.1074C69.8125 15.1074 68.8555 14.0332 68.8555 12.3828C68.8555 10.752 69.832 9.62891 71.3066 9.62891C72.5176 9.62891 73.6602 10.3809 73.6602 12.2949V12.666H69.8906C69.9199 13.6719 70.5107 14.248 71.3848 14.248C71.9805 14.248 72.3613 13.9941 72.5371 13.6719H73.5918C73.3574 14.5312 72.5371 15.1074 71.375 15.1074ZM69.9004 11.8848H72.6348C72.6348 11.0742 72.1172 10.4883 71.3164 10.4883C70.4814 10.4883 69.9395 11.1328 69.9004 11.8848ZM76.7305 15.1074C75.168 15.1074 74.2109 14.0332 74.2109 12.3828C74.2109 10.752 75.1875 9.62891 76.6621 9.62891C77.873 9.62891 79.0156 10.3809 79.0156 12.2949V12.666H75.2461C75.2754 13.6719 75.8662 14.248 76.7402 14.248C77.3359 14.248 77.7168 13.9941 77.8926 13.6719H78.9473C78.7129 14.5312 77.8926 15.1074 76.7305 15.1074ZM75.2559 11.8848H77.9902C77.9902 11.0742 77.4727 10.4883 76.6719 10.4883C75.8369 10.4883 75.2949 11.1328 75.2559 11.8848Z" fill="black"/>
</svg>
