<svg viewBox="0 0 35 46" preserveAspectRatio="none" fill="none" xmlns="http://www.w3.org/2000/svg">
<ellipse cx="17.5" cy="39.125" rx="17.5" ry="6.25" fill="black" fill-opacity="0.32"/>
<mask id="path-2-outside-1_1403_3691" maskUnits="userSpaceOnUse" x="3.38889" y="0" width="28" height="40" fill="black">
<rect fill="white" x="3.38889" width="28" height="40"/>
<path fill-rule="evenodd" clip-rule="evenodd" d="M17.3556 38.5C17.3556 38.5 30.3223 22.9156 30.3223 13.9667C30.3223 6.80539 24.5169 1 17.3556 1C10.1943 1 4.38889 6.80539 4.38889 13.9667C4.38889 22.9136 17.3556 38.5 17.3556 38.5ZM17.3917 18.4448C19.9667 18.4448 22.0542 16.3573 22.0542 13.7823C22.0542 11.2073 19.9667 9.11979 17.3917 9.11979C14.8166 9.11979 12.7292 11.2073 12.7292 13.7823C12.7292 16.3573 14.8166 18.4448 17.3917 18.4448Z"/>
</mask>
<path fill-rule="evenodd" clip-rule="evenodd" d="M17.3556 38.5C17.3556 38.5 30.3223 22.9156 30.3223 13.9667C30.3223 6.80539 24.5169 1 17.3556 1C10.1943 1 4.38889 6.80539 4.38889 13.9667C4.38889 22.9136 17.3556 38.5 17.3556 38.5ZM17.3917 18.4448C19.9667 18.4448 22.0542 16.3573 22.0542 13.7823C22.0542 11.2073 19.9667 9.11979 17.3917 9.11979C14.8166 9.11979 12.7292 11.2073 12.7292 13.7823C12.7292 16.3573 14.8166 18.4448 17.3917 18.4448Z" fill="#321900"/>
<path d="M17.3556 38.5L16.9712 38.8198L17.3556 39.2818L17.7399 38.8198L17.3556 38.5ZM29.8223 13.9667C29.8223 16.0987 29.0456 18.6738 27.8398 21.3713C26.6384 24.0589 25.0322 26.8223 23.419 29.3177C21.8069 31.8116 20.1939 34.0287 18.9834 35.6227C18.3784 36.4195 17.8745 37.0599 17.5222 37.5007C17.346 37.7211 17.2078 37.8915 17.1139 38.0066C17.0669 38.0641 17.031 38.1078 17.007 38.137C16.995 38.1515 16.9859 38.1625 16.9799 38.1697C16.9769 38.1733 16.9747 38.176 16.9732 38.1778C16.9725 38.1786 16.972 38.1793 16.9716 38.1797C16.9715 38.1799 16.9714 38.18 16.9713 38.1801C16.9712 38.1802 16.9712 38.1802 17.3556 38.5C17.7399 38.8198 17.74 38.8197 17.7402 38.8195C17.7403 38.8194 17.7405 38.8191 17.7407 38.8189C17.7412 38.8183 17.7418 38.8175 17.7427 38.8165C17.7444 38.8145 17.7468 38.8115 17.7501 38.8076C17.7565 38.7998 17.7661 38.7882 17.7786 38.7731C17.8036 38.7427 17.8405 38.6978 17.8885 38.639C17.9845 38.5214 18.1249 38.3483 18.3033 38.125C18.6601 37.6786 19.1692 37.0316 19.7798 36.2275C21.0007 34.6198 22.6293 32.3815 24.2588 29.8606C25.8874 27.3413 27.5229 24.5307 28.7527 21.7794C29.9782 19.0379 30.8223 16.3091 30.8223 13.9667H29.8223ZM17.3556 1.5C24.2408 1.5 29.8223 7.08153 29.8223 13.9667H30.8223C30.8223 6.52925 24.793 0.5 17.3556 0.5V1.5ZM4.88889 13.9667C4.88889 7.08153 10.4704 1.5 17.3556 1.5V0.5C9.91813 0.5 3.88889 6.52925 3.88889 13.9667H4.88889ZM17.3556 38.5C17.74 38.1802 17.74 38.1802 17.7399 38.1801C17.7398 38.18 17.7397 38.1799 17.7396 38.1797C17.7392 38.1793 17.7387 38.1787 17.738 38.1778C17.7365 38.176 17.7343 38.1734 17.7313 38.1697C17.7253 38.1625 17.7162 38.1516 17.7042 38.137C17.6802 38.1078 17.6443 38.0641 17.5973 38.0066C17.5034 37.8915 17.3652 37.721 17.189 37.5006C16.8367 37.0598 16.3328 36.4193 15.7278 35.6225C14.5173 34.0283 12.9043 31.811 11.2921 29.317C9.67903 26.8214 8.07279 24.058 6.8714 21.3704C5.6656 18.6731 4.88889 16.0982 4.88889 13.9667H3.88889C3.88889 16.3086 4.73301 19.0372 5.95847 21.7785C7.18833 24.5298 8.82377 27.3404 10.4523 29.8599C12.0819 32.3808 13.7105 34.6193 14.9313 36.2272C15.5419 37.0314 16.051 37.6784 16.4078 38.1249C16.5863 38.3482 16.7266 38.5213 16.8226 38.6389C16.8706 38.6977 16.9075 38.7427 16.9326 38.773C16.9451 38.7882 16.9546 38.7998 16.9611 38.8076C16.9643 38.8115 16.9668 38.8145 16.9685 38.8165C16.9693 38.8175 16.97 38.8183 16.9704 38.8188C16.9707 38.8191 16.9709 38.8193 16.971 38.8195C16.9711 38.8196 16.9712 38.8198 17.3556 38.5ZM21.5542 13.7823C21.5542 16.0812 19.6906 17.9448 17.3917 17.9448V18.9448C20.2429 18.9448 22.5542 16.6335 22.5542 13.7823H21.5542ZM17.3917 9.61979C19.6906 9.61979 21.5542 11.4834 21.5542 13.7823H22.5542C22.5542 10.9311 20.2429 8.61979 17.3917 8.61979V9.61979ZM13.2292 13.7823C13.2292 11.4834 15.0928 9.61979 17.3917 9.61979V8.61979C14.5405 8.61979 12.2292 10.9311 12.2292 13.7823H13.2292ZM17.3917 17.9448C15.0928 17.9448 13.2292 16.0812 13.2292 13.7823H12.2292C12.2292 16.6335 14.5405 18.9448 17.3917 18.9448V17.9448Z" fill="white" mask="url(#path-2-outside-1_1403_3691)"/>
</svg>
